HIERARCHY
ROOT Hips
{
 OFFSET 0.000000 0.000000 0.000000
 CHANNELS 6 Xposition Yposition Zposition Yrotation Xrotation Zrotation
 JOINT Chest
 {
  OFFSET 0.000000 9.585900 0.002600
  CHANNELS 3 Yrotation Xrotation Zrotation
  JOINT Chest2
  {
   OFFSET 0.000000 9.601200 -0.005300
   CHANNELS 3 Yrotation Xrotation Zrotation
   JOINT Chest3
   {
    OFFSET 0.000000 9.561800 0.000000
    CHANNELS 3 Yrotation Xrotation Zrotation
    JOINT Chest4
    {
     OFFSET 0.000000 9.552100 0.000000
     CHANNELS 3 Yrotation Xrotation Zrotation
     JOINT Neck
     {
      OFFSET 0.000000 14.453000 0.000000
      CHANNELS 3 Yrotation Xrotation Zrotation
      JOINT Head
      {
       OFFSET 0.000000 8.936500 -0.011300
       CHANNELS 3 Yrotation Xrotation Zrotation
       End Site
       {
        OFFSET 0.000000 17.073600 -0.006000
       }
      }
     }
     JOINT RightCollar
     {
      OFFSET -2.921100 9.558500 0.000000
      CHANNELS 3 Yrotation Xrotation Zrotation
      JOINT RightShoulder
      {
       OFFSET -13.519700 0.000000 0.000000
       CHANNELS 3 Yrotation Xrotation Zrotation
       JOINT RightElbow
       {
        OFFSET 0.000000 -29.696600 0.000000
        CHANNELS 3 Yrotation Xrotation Zrotation
        JOINT RightWrist
        {
         OFFSET 0.000000 -24.004700 0.000000
         CHANNELS 3 Yrotation Xrotation Zrotation
         End Site
         {
          OFFSET 0.000000 -17.728500 0.000000
         }
        }
       }
      }
     }
     JOINT LeftCollar
     {
      OFFSET 2.921100 9.558500 0.000000
      CHANNELS 3 Yrotation Xrotation Zrotation
      JOINT LeftShoulder
      {
       OFFSET 13.519700 0.000000 0.000000
       CHANNELS 3 Yrotation Xrotation Zrotation
       JOINT LeftElbow
       {
        OFFSET 0.000000 -29.696600 0.000000
        CHANNELS 3 Yrotation Xrotation Zrotation
        JOINT LeftWrist
        {
         OFFSET 0.000000 -24.004700 0.000000
         CHANNELS 3 Yrotation Xrotation Zrotation
         End Site
         {
          OFFSET 0.000000 -17.728500 0.000000
         }
        }
       }
      }
     }
    }
   }
  }
 }
 JOINT RightHip
 {
  OFFSET -7.771700 -0.012900 -0.001300
  CHANNELS 3 Yrotation Xrotation Zrotation
  JOINT RightKnee
  {
   OFFSET 0.000000 -40.869800 0.001200
   CHANNELS 3 Yrotation Xrotation Zrotation
   JOINT RightAnkle
   {
    OFFSET 0.000000 -39.717900 0.002100
    CHANNELS 3 Yrotation Xrotation Zrotation
    JOINT RightToe
    {
     OFFSET 0.000000 -4.965400 11.033500
     CHANNELS 3 Yrotation Xrotation Zrotation
     End Site
     {
      OFFSET 0.000000 -1.423100 5.872300
     }
    }
   }
  }
 }
 JOINT LeftHip
 {
  OFFSET 7.771700 -0.012900 -0.001300
  CHANNELS 3 Yrotation Xrotation Zrotation
  JOINT LeftKnee
  {
   OFFSET 0.000000 -40.869800 0.001200
   CHANNELS 3 Yrotation Xrotation Zrotation
   JOINT LeftAnkle
   {
    OFFSET 0.000000 -39.717900 0.002100
    CHANNELS 3 Yrotation Xrotation Zrotation
    JOINT LeftToe
    {
     OFFSET 0.000000 -4.965400 11.033500
     CHANNELS 3 Yrotation Xrotation Zrotation
     End Site
     {
      OFFSET 0.000000 -1.423100 5.872300
     }
    }
   }
  }
 }
}
MOTION
Frames: 12
Frame Time: 0.008333
0.000000 85.388000 0.000000 0.000000 -5.767877 0.000000 0.000000 11.653817 0.000000 0.000000 -5.885947 0.000000 0.000000 -0.000000 0.000000 0.000000 -0.000000 0.000000 0.000000 12.528835 0.000000 0.000000 0.711642 0.000000 0.000000 -0.000000 0.000000 0.000000 0.000000 -90.000000 0.000000 -2.309062 0.000000 0.000000 2.309062 0.000000 0.000000 -0.000000 0.000000 0.000000 -0.000000 90.000000 0.000000 -2.309062 0.000000 0.000000 2.309062 0.000000 0.000000 8.520406 0.000000 0.000000 1.905762 0.000000 -0.000000 -4.658285 0.000000 0.000000 -0.000000 0.000000 0.000000 8.520406 0.000000 0.000000 1.905762 0.000000 -0.000000 -4.658285 0.000000 0.000000 -0.000000 0.000000
-2.880072 50.003894 36.858668 172.834307 -33.758148 -6.598432 6.772062 22.467653 7.443910 0.811166 3.375262 0.743154 1.328104 5.465586 1.236935 5.270037 18.872984 4.997687 -3.811382 20.067207 3.724325 -8.045471 1.844611 7.912560 2.155052 -2.161851 -4.817130 25.327866 -31.619459 -21.584577 121.808146 -59.914087 -133.429592 0.081279 -10.018376 -18.406243 -13.962398 0.629681 -0.787546 -5.401950 -13.291280 6.957820 176.116179 -63.253448 161.051775 14.290421 -2.240720 -20.520636 -1.042186 -47.025040 10.060918 -89.953376 83.061860 -77.441488 0.480892 -9.821701 -6.040790 -0.171751 1.086719 -0.064227 -8.955683 -51.076338 16.794251 -159.723173 84.546146 -167.562427 -2.176169 -10.901441 6.958486 -0.060300 -0.414637 0.034474
-2.879076 50.002792 36.856367 172.851688 -33.754757 -6.554923 6.736611 22.494478 7.395921 0.814184 3.382393 0.742306 1.321889 5.531397 1.258053 5.262055 18.834524 4.970018 -3.835277 20.063954 3.729801 -8.090854 1.841481 7.929781 2.150254 -2.042929 -4.797375 25.281225 -31.454771 -21.596311 121.428236 -59.756912 -133.063501 0.193936 -10.003090 -18.576489 -13.981289 0.629785 -0.804051 -5.554367 -13.320006 7.021567 176.729365 -63.177183 160.556814 14.206707 -2.250284 -20.610609 -1.023656 -47.034088 10.000287 -90.115209 83.076194 -77.608038 0.460920 -9.825639 -6.055783 -0.164215 1.076718 -0.058648 -8.930084 -51.067596 16.772145 -158.542573 84.536245 -166.451813 -2.121325 -10.875639 7.003524 -0.057556 -0.399390 0.031807
-2.874999 50.003352 36.852385 172.877185 -33.768769 -6.526710 6.698811 22.537364 7.361998 0.809645 3.417030 0.753827 1.316008 5.569424 1.270261 5.254494 18.799099 4.937011 -3.854423 20.058348 3.734531 -8.190221 1.867482 7.989361 2.139714 -1.926745 -4.776478 25.181990 -31.264345 -21.562545 121.240747 -59.606239 -132.855137 0.290071 -10.124586 -18.658928 -14.017566 0.689444 -0.850227 -5.662796 -13.408272 7.108018 177.290183 -63.104334 160.086881 14.137879 -2.260887 -20.696062 -1.017384 -47.022755 9.956407 -90.279631 83.091770 -77.775583 0.444521 -9.829686 -6.072396 -0.157419 1.069917 -0.054729 -8.943528 -51.042065 16.763974 -157.785527 84.529118 -165.756679 -2.080862 -10.835818 7.022099 -0.055228 -0.402868 0.032956
-2.869221 50.001585 36.852880 172.875590 -33.760000 -6.495097 6.679334 22.628759 7.377088 0.806297 3.437839 0.755697 1.321710 5.527262 1.241529 5.225142 18.900174 4.961695 -3.877621 19.970481 3.710619 -8.237682 1.820124 8.016668 2.151511 -1.930262 -4.809696 25.032635 -31.043525 -21.482270 121.236099 -59.479796 -132.799296 0.371485 -10.330614 -18.616935 -14.011872 0.594194 -0.913579 -5.759799 -13.466679 7.173119 177.768347 -63.050851 159.674817 14.091736 -2.274927 -20.773872 -1.007883 -47.039601 9.932524 -90.381946 83.092160 -77.889729 0.464061 -9.817637 -6.077514 -0.168591 1.069626 -0.064375 -8.934097 -51.051740 16.756568 -157.180260 84.520235 -165.183432 -2.059236 -10.783974 7.040848 -0.055229 -0.359803 0.013214
-2.865478 49.997817 36.856598 172.881045 -33.730506 -6.460590 6.654181 22.628390 7.345083 0.803750 3.467757 0.769224 1.319585 5.540867 1.243247 5.209582 18.946235 4.971490 -3.899918 19.926905 3.708531 -8.253161 1.749480 8.024146 2.132838 -1.882554 -4.811844 24.841568 -30.793549 -21.363219 121.364546 -59.375089 -132.858786 0.439801 -10.572778 -18.444386 -14.001191 0.496726 -0.944015 -5.809576 -13.474831 7.192528 178.075485 -63.031852 159.365696 14.070093 -2.289262 -20.843118 -0.988873 -47.076559 9.896513 -90.471046 83.087075 -77.985132 0.469010 -9.824724 -6.081690 -0.171932 1.079991 -0.066545 -8.928590 -51.076327 16.735592 -156.839002 84.527539 -164.874191 -2.047840 -10.766165 7.053940 -0.064084 -0.315111 0.004690
-2.861748 49.996345 36.857999 172.896102 -33.722678 -6.436891 6.628808 22.647902 7.322267 0.800432 3.495232 0.783620 1.316480 5.553406 1.245272 5.200083 18.929388 4.951908 -3.917299 19.970017 3.759331 -8.253936 1.648051 7.998906 2.093793 -1.771534 -4.775008 24.612443 -30.519114 -21.211002 121.576840 -59.284840 -132.989793 0.498179 -10.815936 -18.153622 -14.013060 0.520364 -0.977722 -5.910875 -13.520557 7.244004 178.330484 -63.044540 159.157900 14.070106 -2.297724 -20.901311 -0.983250 -47.090615 9.871281 -90.578905 83.085312 -78.100973 0.464226 -9.823286 -6.086298 -0.172203 1.076983 -0.066968 -8.957847 -51.072725 16.746652 -156.430880 84.530720 -164.521538 -2.047502 -10.743358 7.076921 -0.057045 -0.300417 -0.000975
-2.859095 49.994171 36.861833 172.911946 -33.701792 -6.419772 6.601792 22.672622 7.316396 0.797678 3.502901 0.785860 1.311683 5.564133 1.247480 5.177330 18.968440 4.963235 -3.919020 19.921466 3.757796 -8.248258 1.590731 7.962723 2.069154 -1.714476 -4.772351 24.353330 -30.220905 -21.032525 121.831573 -59.202899 -133.159231 0.549986 -11.036425 -17.766014 -14.005522 0.473545 -1.026622 -5.990108 -13.562744 7.278051 178.475470 -63.096333 159.039481 14.086734 -2.298634 -20.951734 -0.987524 -47.117263 9.857436 -90.640753 83.082145 -78.174802 0.456942 -9.818550 -6.086717 -0.173739 1.074125 -0.067655 -8.983579 -51.086019 16.760691 -155.911104 84.529239 -164.051277 -2.034084 -10.721999 7.107176 -0.050222 -0.299485 -0.007426
-2.859097 49.993972 36.863836 172.926116 -33.695571 -6.397700 6.580721 22.711794 7.311313 0.789589 3.498547 0.779125 1.301966 5.584991 1.257344 5.147239 19.003213 4.974626 -3.910410 19.861412 3.736486 -8.251577 1.522499 7.965243 2.049880 -1.656332 -4.770056 24.066023 -29.902344 -20.834433 122.106727 -59.130886 -133.349383 0.602519 -11.224715 -17.308800 -13.984674 0.415537 -1.080449 -6.041321 -13.599097 7.299620 178.535117 -63.182992 158.981715 14.116456 -2.295632 -20.993486 -0.981539 -47.129620 9.839711 -90.702087 83.083352 -78.258310 0.449430 -9.815835 -6.073543 -0.185999 1.069995 -0.069862 -8.978576 -51.087142 16.735203 -155.734420 84.538834 -163.902120 -2.033046 -10.707750 7.127287 -0.049147 -0.276818 -0.014999
-2.859825 49.994724 36.866592 172.934787 -33.687706 -6.383294 6.549328 22.797656 7.334691 0.808118 3.423199 0.733582 1.281679 5.628047 1.282449 5.116224 19.018477 4.975979 -3.896503 19.818755 3.717026 -8.236110 1.448282 7.948833 2.026952 -1.582917 -4.755741 23.748461 -29.568494 -20.621277 122.393257 -59.070216 -133.546648 0.662427 -11.387594 -16.812313 -13.954357 0.370250 -1.129324 -6.097182 -13.630994 7.315648 178.572495 -63.288914 158.956894 14.157797 -2.295230 -21.020037 -0.979768 -47.142384 9.834573 -90.742027 83.076363 -78.313053 0.441951 -9.810473 -6.081807 -0.182349 1.068098 -0.057807 -8.957719 -51.093359 16.704472 -155.683043 84.549779 -163.857158 -2.043801 -10.699750 7.144875 -0.047522 -0.254016 -0.021631
-2.868507 49.995589 36.869191 172.975247 -33.670753 -6.353696 6.477012 22.833061 7.296715 0.811038 3.433344 0.737096 1.264382 5.630232 1.283735 5.083675 19.033995 4.979167 -3.878065 19.774276 3.688096 -8.209847 1.371903 7.917173 1.997332 -1.512164 -4.739523 23.410126 -29.220394 -20.402356 122.668425 -59.018578 -133.725840 0.724775 -11.538505 -16.307548 -13.913285 0.324904 -1.178524 -6.155665 -13.663310 7.326445 178.630714 -63.352108 158.938442 14.221008 -2.260631 -21.023803 -0.966432 -47.159885 9.772975 -90.766421 83.069721 -78.346047 0.399726 -9.787703 -6.090861 -0.144053 1.045084 -0.047681 -8.909665 -51.108826 16.599487 -155.740142 84.577570 -163.914942 -2.052642 -10.700483 7.168220 -0.045242 -0.211705 -0.028927
-2.873889 49.997283 36.874339 173.002189 -33.643807 -6.352431 6.435030 22.830600 7.285391 0.768981 3.497429 0.778924 1.278807 5.595735 1.257389 5.050587 19.050436 4.984290 -3.856930 19.726318 3.650826 -8.142858 1.230548 7.830570 1.959366 -1.444292 -4.721704 23.060892 -28.859769 -20.184980 122.905336 -58.973587 -133.861917 0.784175 -11.674821 -15.826575 -13.863853 0.260149 -1.227917 -6.197746 -13.671869 7.329906 178.665692 -63.411380 158.931722 14.248303 -2.241002 -20.987844 -0.975705 -47.185386 9.765587 -90.752534 83.059533 -78.345529 0.385797 -9.790664 -6.083830 -0.134726 1.049138 -0.045641 -8.845244 -51.146534 16.509378 -156.060617 84.602042 -164.188950 -2.069452 -10.698917 7.172343 -0.043810 -0.194238 -0.029697
